<svg width="256" height="76" viewBox="0 0 256 76" fill="none" xmlns="http://www.w3.org/2000/svg">
<path d="M22.0365 6.3275C22.5345 6.3275 22.8942 6.50733 23.1155 6.867C23.3645 7.22667 23.489 7.64167 23.489 8.112C23.489 8.58233 23.3645 8.99733 23.1155 9.357C22.8942 9.71667 22.5345 9.8965 22.0365 9.8965H14.0685V34.2985C14.0685 34.9072 13.861 35.3498 13.446 35.6265C13.031 35.9032 12.5468 36.0415 11.9935 36.0415C11.4402 36.0415 10.956 35.9032 10.541 35.6265C10.126 35.3498 9.9185 34.9072 9.9185 34.2985V9.8965H1.992C1.46633 9.8965 1.079 9.71667 0.83 9.357C0.608667 8.99733 0.498 8.58233 0.498 8.112C0.498 7.64167 0.608667 7.22667 0.83 6.867C1.079 6.50733 1.46633 6.3275 1.992 6.3275H22.0365ZM29.5117 5.622C30.2864 5.622 30.9365 5.88483 31.4622 6.4105C31.9879 6.9085 32.2507 7.51716 32.2507 8.2365C32.2507 8.9835 31.9879 9.61983 31.4622 10.1455C30.9365 10.6435 30.2864 10.8925 29.5117 10.8925C28.737 10.8925 28.0869 10.6435 27.5612 10.1455C27.0355 9.61983 26.7727 8.9835 26.7727 8.2365C26.7727 7.51716 27.0355 6.9085 27.5612 6.4105C28.0869 5.88483 28.737 5.622 29.5117 5.622ZM29.5117 13.839C30.065 13.839 30.5354 13.9773 30.9227 14.254C31.3377 14.5307 31.5452 14.9595 31.5452 15.5405V34.34C31.5452 34.921 31.3377 35.3498 30.9227 35.6265C30.5354 35.9032 30.065 36.0415 29.5117 36.0415C28.986 36.0415 28.5157 35.9032 28.1007 35.6265C27.6857 35.3498 27.4782 34.921 27.4782 34.34V15.5405C27.4782 14.9595 27.6857 14.5307 28.1007 14.254C28.5157 13.9773 28.986 13.839 29.5117 13.839ZM49.2501 13.5485C51.7401 13.5485 53.6768 14.254 55.0601 15.665C56.4435 17.0483 57.1351 19.0403 57.1351 21.641V34.34C57.1351 34.921 56.9276 35.3498 56.5126 35.6265C56.0976 35.9032 55.6273 36.0415 55.1016 36.0415C54.576 36.0415 54.1056 35.9032 53.6906 35.6265C53.2756 35.3498 53.0681 34.921 53.0681 34.34V22.5955C53.0681 20.6035 52.6255 19.2063 51.7401 18.404C50.8825 17.574 49.6651 17.159 48.0881 17.159C47.3411 17.159 46.6218 17.2973 45.9301 17.574C45.2661 17.823 44.6713 18.1827 44.1456 18.653C43.6476 19.1233 43.2465 19.7043 42.9421 20.396C42.6378 21.06 42.4856 21.8208 42.4856 22.6785V34.34C42.4856 34.921 42.2781 35.3498 41.8631 35.6265C41.4481 35.9032 40.964 36.0415 40.4106 36.0415C39.885 36.0415 39.4146 35.9032 38.9996 35.6265C38.5846 35.3498 38.3771 34.921 38.3771 34.34V15.499C38.3771 14.918 38.5708 14.503 38.9581 14.254C39.3731 13.9773 39.8296 13.839 40.3276 13.839C40.8256 13.839 41.2683 13.9773 41.6556 14.254C42.0706 14.503 42.2781 14.918 42.2781 15.499V16.9515H42.3611C42.8868 15.9832 43.7721 15.1808 45.0171 14.5445C46.2621 13.8805 47.6731 13.5485 49.2501 13.5485ZM65.6997 5.0825C66.253 5.0825 66.7372 5.22083 67.1522 5.4975C67.5672 5.77417 67.7747 6.203 67.7747 6.784V23.9235L77.6102 14.42C78.0252 14.005 78.5094 13.8113 79.0627 13.839C79.616 13.8667 80.0725 14.0742 80.4322 14.4615C80.8195 14.8765 81.0132 15.333 81.0132 15.831C81.0409 16.329 80.8195 16.7717 80.3492 17.159L73.7507 23.1765L81.5527 32.8045C81.94 33.2748 82.0784 33.759 81.9677 34.257C81.8847 34.755 81.6495 35.17 81.2622 35.502C80.8195 35.8893 80.3215 36.0692 79.7682 36.0415C79.2425 36.0415 78.7999 35.8063 78.4402 35.336L70.8872 25.708L67.7747 28.53V34.34C67.7747 34.921 67.5672 35.3498 67.1522 35.6265C66.7372 35.9032 66.253 36.0415 65.6997 36.0415C65.174 36.0415 64.7037 35.9032 64.2887 35.6265C63.8737 35.3498 63.6662 34.921 63.6662 34.34V6.784C63.6662 6.203 63.8737 5.77417 64.2887 5.4975C64.7037 5.22083 65.174 5.0825 65.6997 5.0825ZM95.2801 13.5485C96.7188 13.5485 98.0191 13.7698 99.1811 14.2125C100.371 14.6552 101.381 15.3053 102.211 16.163C103.068 16.993 103.718 18.0167 104.161 19.234C104.631 20.4513 104.867 21.8347 104.867 23.384V23.467C104.867 24.5183 104.645 25.2653 104.203 25.708C103.76 26.123 102.999 26.3305 101.92 26.3305H89.3871V26.4965C89.3871 28.4885 89.9128 30.024 90.9641 31.103C92.0154 32.182 93.5371 32.7215 95.5291 32.7215C96.7741 32.7215 97.8531 32.6108 98.7661 32.3895C99.7068 32.1682 100.62 31.8223 101.505 31.352C101.975 31.1307 102.404 31.0892 102.792 31.2275C103.207 31.3382 103.525 31.6287 103.746 32.099C103.967 32.5693 104.023 33.0258 103.912 33.4685C103.801 33.8835 103.539 34.2017 103.124 34.423C102.128 34.9763 100.993 35.4052 99.7206 35.7095C98.4756 36.0138 97.0231 36.166 95.3631 36.166C92.2368 36.166 89.7883 35.2945 88.0176 33.5515C86.2469 31.7808 85.3616 29.1248 85.3616 25.5835V24.1725C85.3616 20.6588 86.2469 18.0167 88.0176 16.246C89.8159 14.4477 92.2368 13.5485 95.2801 13.5485ZM95.1971 16.993C93.3158 16.993 91.8771 17.5325 90.8811 18.6115C89.8851 19.6628 89.3871 21.1153 89.3871 22.969V23.218H100.924V22.8445C100.924 21.0462 100.454 19.6213 99.5131 18.57C98.5724 17.5187 97.1338 16.993 95.1971 16.993ZM120.48 13.5485C121.42 13.5485 122.195 13.7007 122.804 14.005C123.606 14.3923 123.897 15.0978 123.675 16.1215C123.537 16.7025 123.274 17.159 122.887 17.491C122.527 17.7953 122.098 17.8922 121.6 17.7815C121.268 17.7262 120.936 17.6708 120.604 17.6155C120.272 17.5325 119.913 17.491 119.525 17.491C118.751 17.491 118.045 17.6432 117.409 17.9475C116.8 18.2518 116.274 18.6807 115.832 19.234C115.389 19.7597 115.043 20.3822 114.794 21.1015C114.573 21.8208 114.462 22.6093 114.462 23.467V34.34C114.462 34.921 114.255 35.3498 113.84 35.6265C113.425 35.9032 112.941 36.0415 112.387 36.0415C111.862 36.0415 111.391 35.9032 110.976 35.6265C110.561 35.3498 110.354 34.921 110.354 34.34V15.499C110.354 14.918 110.547 14.503 110.935 14.254C111.35 13.9773 111.806 13.839 112.304 13.839C112.83 13.839 113.286 13.9773 113.674 14.254C114.089 14.503 114.296 14.918 114.296 15.499V17.6985H114.379C114.85 16.5918 115.61 15.6235 116.662 14.7935C117.713 13.9635 118.986 13.5485 120.48 13.5485Z" fill="black"/>
<path d="M149.731 6.286C150.257 6.47966 150.644 6.784 150.893 7.199C151.142 7.58633 151.156 8.09817 150.935 8.7345L141.182 34.174C140.878 34.8933 140.504 35.3913 140.062 35.668C139.647 35.917 139.162 36.0415 138.609 36.0415C138.056 36.0415 137.558 35.917 137.115 35.668C136.7 35.3913 136.34 34.8933 136.036 34.174L126.45 8.776C126.201 8.13967 126.201 7.614 126.45 7.199C126.699 6.784 127.1 6.47966 127.653 6.286C128.206 6.06467 128.746 6.037 129.272 6.203C129.797 6.369 130.171 6.75633 130.392 7.365L138.692 30.688L147.034 7.4065C147.255 6.77017 147.615 6.369 148.113 6.203C148.638 6.037 149.178 6.06467 149.731 6.286Z" fill="#FF5000"/>
<path d="M173.828 6.3275C174.326 6.3275 174.685 6.50733 174.907 6.867C175.156 7.199 175.28 7.60016 175.28 8.0705C175.28 8.54083 175.156 8.95583 174.907 9.3155C174.685 9.6475 174.326 9.8135 173.828 9.8135H160.548V18.985H172.998C173.468 18.985 173.814 19.151 174.035 19.483C174.284 19.815 174.409 20.2162 174.409 20.6865C174.409 21.1568 174.284 21.5718 174.035 21.9315C173.814 22.2635 173.468 22.4295 172.998 22.4295H160.548V32.348H174.118C174.616 32.348 174.976 32.5278 175.197 32.8875C175.446 33.2195 175.571 33.6207 175.571 34.091C175.571 34.5613 175.446 34.9763 175.197 35.336C174.976 35.668 174.616 35.834 174.118 35.834H159.593C158.376 35.834 157.532 35.6127 157.062 35.17C156.619 34.7273 156.398 33.925 156.398 32.763V9.3985C156.398 8.2365 156.619 7.43417 157.062 6.9915C157.532 6.54883 158.376 6.3275 159.593 6.3275H173.828Z" fill="#FFD241"/>
<path d="M192.188 6.3275C195.259 6.3275 197.652 7.033 199.368 8.444C201.083 9.855 201.941 11.9023 201.941 14.586V15.2915C201.941 17.2558 201.47 18.8743 200.53 20.147C199.617 21.392 198.33 22.305 196.67 22.886L202.148 33.178C202.452 33.7313 202.508 34.2432 202.314 34.7135C202.148 35.1838 201.816 35.5435 201.318 35.7925C200.765 36.0138 200.239 36.083 199.741 36C199.243 35.917 198.856 35.5988 198.579 35.0455L192.686 23.55C192.465 23.6053 192.23 23.633 191.981 23.633C191.759 23.633 191.538 23.633 191.317 23.633H185.797V34.2985C185.797 34.9072 185.576 35.3498 185.133 35.6265C184.718 35.9032 184.234 36.0415 183.681 36.0415C183.127 36.0415 182.643 35.9032 182.228 35.6265C181.813 35.3498 181.606 34.9072 181.606 34.2985V9.3985C181.606 8.2365 181.827 7.43417 182.27 6.9915C182.74 6.54883 183.584 6.3275 184.801 6.3275H192.188ZM191.317 20.1055C193.613 20.1055 195.273 19.6905 196.297 18.8605C197.32 18.0305 197.832 16.827 197.832 15.25V14.669C197.832 13.0643 197.334 11.8608 196.338 11.0585C195.342 10.2562 193.807 9.855 191.732 9.855H185.797V20.1055H191.317Z" fill="#9632A5"/>
<path d="M218.06 5.871C221.214 5.871 223.801 6.43817 225.82 7.5725C226.291 7.8215 226.595 8.195 226.733 8.693C226.872 9.16333 226.802 9.63367 226.526 10.104C226.249 10.602 225.903 10.9202 225.488 11.0585C225.073 11.1692 224.631 11.1138 224.16 10.8925C223.275 10.4498 222.348 10.1317 221.38 9.938C220.439 9.71667 219.36 9.606 218.143 9.606C217.174 9.606 216.303 9.71667 215.528 9.938C214.781 10.1593 214.145 10.4637 213.619 10.851C213.094 11.2383 212.679 11.6948 212.374 12.2205C212.098 12.7185 211.959 13.258 211.959 13.839V14.254C211.959 14.8627 212.056 15.4022 212.25 15.8725C212.443 16.3152 212.789 16.7302 213.287 17.1175C213.785 17.4772 214.449 17.8092 215.279 18.1135C216.137 18.3902 217.216 18.6668 218.516 18.9435C220.342 19.3308 221.878 19.7735 223.123 20.2715C224.368 20.7695 225.378 21.3643 226.152 22.056C226.927 22.72 227.48 23.4947 227.812 24.38C228.144 25.2653 228.31 26.2613 228.31 27.368V27.949C228.31 30.5497 227.397 32.597 225.571 34.091C223.745 35.5573 221.117 36.2905 217.686 36.2905C215.943 36.2905 214.256 36.0692 212.623 35.6265C211.019 35.1562 209.649 34.5475 208.515 33.8005C207.989 33.4962 207.685 33.095 207.602 32.597C207.546 32.0713 207.671 31.5733 207.975 31.103C208.28 30.6327 208.653 30.3422 209.096 30.2315C209.538 30.0932 209.995 30.1762 210.465 30.4805C211.517 31.1168 212.665 31.6287 213.91 32.016C215.155 32.3757 216.483 32.5555 217.894 32.5555C219.969 32.5555 221.532 32.1405 222.583 31.3105C223.635 30.4805 224.16 29.443 224.16 28.198V27.7415C224.16 27.0498 224.05 26.455 223.828 25.957C223.607 25.4313 223.233 24.9748 222.708 24.5875C222.182 24.2002 221.49 23.8682 220.633 23.5915C219.775 23.2872 218.71 22.9967 217.437 22.72C215.805 22.388 214.38 22.0145 213.163 21.5995C211.973 21.1568 210.977 20.6173 210.175 19.981C209.4 19.3447 208.819 18.5838 208.432 17.6985C208.044 16.7855 207.851 15.6788 207.851 14.3785V13.8805C207.851 12.7462 208.072 11.6948 208.515 10.7265C208.985 9.7305 209.649 8.87283 210.507 8.1535C211.392 7.43417 212.471 6.88083 213.744 6.4935C215.016 6.0785 216.455 5.871 218.06 5.871Z" fill="#73DCFF"/>
<path d="M251.6 6.3275C252.098 6.3275 252.457 6.50733 252.679 6.867C252.928 7.199 253.052 7.60016 253.052 8.0705C253.052 8.54083 252.928 8.95583 252.679 9.3155C252.457 9.6475 252.098 9.8135 251.6 9.8135H238.32V18.985H250.77C251.24 18.985 251.586 19.151 251.807 19.483C252.056 19.815 252.181 20.2162 252.181 20.6865C252.181 21.1568 252.056 21.5718 251.807 21.9315C251.586 22.2635 251.24 22.4295 250.77 22.4295H238.32V32.348H251.89C252.388 32.348 252.748 32.5278 252.969 32.8875C253.218 33.2195 253.343 33.6207 253.343 34.091C253.343 34.5613 253.218 34.9763 252.969 35.336C252.748 35.668 252.388 35.834 251.89 35.834H237.365C236.148 35.834 235.304 35.6127 234.834 35.17C234.391 34.7273 234.17 33.925 234.17 32.763V9.3985C234.17 8.2365 234.391 7.43417 234.834 6.9915C235.304 6.54883 236.148 6.3275 237.365 6.3275H251.6Z" fill="#1EEBC8"/>
<path d="M7.75 53.44C8.01067 53.4707 8.21 53.5627 8.348 53.716C8.50133 53.8693 8.56267 54.084 8.532 54.36L8.049 57.879H11.131L11.637 54.199C11.6677 53.9537 11.775 53.762 11.959 53.624C12.1583 53.4707 12.4037 53.4093 12.695 53.44C12.9557 53.4707 13.1627 53.5627 13.316 53.716C13.4693 53.8693 13.523 54.084 13.477 54.36L12.994 57.879H14.512C14.8033 57.879 15.0103 57.9787 15.133 58.178C15.271 58.362 15.34 58.5843 15.34 58.845C15.34 59.1057 15.271 59.328 15.133 59.512C15.0103 59.696 14.8033 59.788 14.512 59.788H12.718L12.212 63.56H13.776C14.0673 63.56 14.2743 63.6597 14.397 63.859C14.535 64.043 14.604 64.2653 14.604 64.526C14.604 64.7867 14.535 65.009 14.397 65.193C14.2743 65.377 14.0673 65.469 13.776 65.469H11.959L11.43 69.218C11.3993 69.4787 11.292 69.678 11.108 69.816C10.924 69.954 10.6787 70.0153 10.372 70C10.1113 69.9693 9.90433 69.8773 9.751 69.724C9.613 69.5707 9.55933 69.356 9.59 69.08L10.096 65.469H6.991L6.485 69.218C6.45433 69.4787 6.33933 69.678 6.14 69.816C5.956 69.954 5.71833 70.0153 5.427 70C5.16633 69.9693 4.95933 69.8773 4.806 69.724C4.65267 69.5707 4.59133 69.356 4.622 69.08L5.128 65.469H3.587C3.311 65.469 3.104 65.377 2.966 65.193C2.84333 65.009 2.782 64.7867 2.782 64.526C2.782 64.2653 2.84333 64.043 2.966 63.859C3.104 63.6597 3.311 63.56 3.587 63.56H5.381L5.91 59.788H4.323C4.03167 59.788 3.817 59.696 3.679 59.512C3.55633 59.328 3.495 59.1057 3.495 58.845C3.495 58.5843 3.55633 58.362 3.679 58.178C3.817 57.9787 4.03167 57.879 4.323 57.879H6.163L6.692 54.199C6.72267 53.9537 6.83 53.762 7.014 53.624C7.198 53.4707 7.44333 53.4093 7.75 53.44ZM10.349 63.56L10.878 59.788H7.75L7.244 63.56H10.349ZM23.2552 53.302C25.3252 53.302 26.8202 53.9767 27.7402 55.326C28.6756 56.6753 29.1432 58.6227 29.1432 61.168V62.295C29.1432 64.8403 28.6756 66.7877 27.7402 68.137C26.8202 69.4863 25.3252 70.161 23.2552 70.161C21.1852 70.161 19.6826 69.4863 18.7472 68.137C17.8272 66.7877 17.3672 64.8403 17.3672 62.295V61.168C17.3672 58.6227 17.8272 56.6753 18.7472 55.326C19.6826 53.9767 21.1852 53.302 23.2552 53.302ZM23.2552 55.464C22.5806 55.464 22.0132 55.579 21.5532 55.809C21.0932 56.039 20.7252 56.3993 20.4492 56.89C20.1732 57.3653 19.9739 57.971 19.8512 58.707C19.7439 59.443 19.6902 60.3247 19.6902 61.352V62.111C19.6902 63.1383 19.7439 64.02 19.8512 64.756C19.9739 65.492 20.1732 66.1053 20.4492 66.596C20.7252 67.0713 21.0932 67.424 21.5532 67.654C22.0132 67.884 22.5806 67.999 23.2552 67.999C23.9299 67.999 24.4972 67.884 24.9572 67.654C25.4172 67.424 25.7852 67.0713 26.0612 66.596C26.3372 66.1053 26.5289 65.492 26.6362 64.756C26.7589 64.02 26.8202 63.1383 26.8202 62.111V61.352C26.8202 60.3247 26.7589 59.443 26.6362 58.707C26.5289 57.971 26.3372 57.3653 26.0612 56.89C25.7852 56.3993 25.4172 56.039 24.9572 55.809C24.4972 55.579 23.9299 55.464 23.2552 55.464ZM37.2933 53.302C39.3633 53.302 40.8583 53.9767 41.7783 55.326C42.7137 56.6753 43.1813 58.6227 43.1813 61.168V62.295C43.1813 64.8403 42.7137 66.7877 41.7783 68.137C40.8583 69.4863 39.3633 70.161 37.2933 70.161C35.2233 70.161 33.7207 69.4863 32.7853 68.137C31.8653 66.7877 31.4053 64.8403 31.4053 62.295V61.168C31.4053 58.6227 31.8653 56.6753 32.7853 55.326C33.7207 53.9767 35.2233 53.302 37.2933 53.302ZM37.2933 55.464C36.6187 55.464 36.0513 55.579 35.5913 55.809C35.1313 56.039 34.7633 56.3993 34.4873 56.89C34.2113 57.3653 34.012 57.971 33.8893 58.707C33.782 59.443 33.7283 60.3247 33.7283 61.352V62.111C33.7283 63.1383 33.782 64.02 33.8893 64.756C34.012 65.492 34.2113 66.1053 34.4873 66.596C34.7633 67.0713 35.1313 67.424 35.5913 67.654C36.0513 67.884 36.6187 67.999 37.2933 67.999C37.968 67.999 38.5353 67.884 38.9953 67.654C39.4553 67.424 39.8233 67.0713 40.0993 66.596C40.3753 66.1053 40.567 65.492 40.6743 64.756C40.797 64.02 40.8583 63.1383 40.8583 62.111V61.352C40.8583 60.3247 40.797 59.443 40.6743 58.707C40.567 57.971 40.3753 57.3653 40.0993 56.89C39.8233 56.3993 39.4553 56.039 38.9953 55.809C38.5353 55.579 37.968 55.464 37.2933 55.464ZM51.2164 53.302C52.0904 53.302 52.8417 53.4093 53.4704 53.624C54.1144 53.8387 54.6511 54.1377 55.0804 54.521C55.5097 54.889 55.8241 55.326 56.0234 55.832C56.2381 56.338 56.3454 56.8747 56.3454 57.442V57.672C56.3454 58.546 56.1614 59.351 55.7934 60.087C55.4254 60.823 54.8504 61.5973 54.0684 62.41L48.7784 67.976H56.2764C56.5524 67.976 56.7517 68.0757 56.8744 68.275C57.0124 68.459 57.0814 68.6813 57.0814 68.942C57.0814 69.2027 57.0124 69.4327 56.8744 69.632C56.7517 69.816 56.5524 69.908 56.2764 69.908H47.4214C46.8234 69.908 46.3941 69.8083 46.1334 69.609C45.8727 69.4097 45.7424 69.0953 45.7424 68.666C45.7424 68.4667 45.7961 68.275 45.9034 68.091C46.0107 67.907 46.1871 67.6847 46.4324 67.424L52.0444 61.49C52.4584 61.0607 52.7881 60.685 53.0334 60.363C53.2941 60.0257 53.5011 59.7113 53.6544 59.42C53.8077 59.1287 53.9074 58.845 53.9534 58.569C54.0147 58.293 54.0454 58.0017 54.0454 57.695V57.58C54.0454 56.9053 53.8077 56.3687 53.3324 55.97C52.8724 55.5713 52.1824 55.372 51.2624 55.372C50.4957 55.372 49.8517 55.533 49.3304 55.855C48.8091 56.1617 48.3414 56.614 47.9274 57.212C47.7587 57.442 47.5441 57.58 47.2834 57.626C47.0381 57.6567 46.7927 57.5877 46.5474 57.419C46.3021 57.2503 46.1411 57.0357 46.0644 56.775C46.0031 56.5143 46.0567 56.2537 46.2254 55.993C46.7161 55.2263 47.3677 54.59 48.1804 54.084C49.0084 53.5627 50.0204 53.302 51.2164 53.302ZM61.2065 67.723C61.6512 67.723 62.0192 67.8687 62.3105 68.16C62.6172 68.4513 62.7705 68.8193 62.7705 69.264C62.7705 69.7087 62.6172 70.0767 62.3105 70.368C62.0192 70.6747 61.6512 70.828 61.2065 70.828C60.7618 70.828 60.3938 70.6747 60.1025 70.368C59.8112 70.0767 59.6655 69.7087 59.6655 69.264C59.6655 68.8193 59.8112 68.4513 60.1025 68.16C60.3938 67.8687 60.7618 67.723 61.2065 67.723ZM77.583 53.44C77.8897 53.44 78.158 53.5167 78.388 53.67C78.6334 53.808 78.8327 54.0763 78.986 54.475L84.437 68.528C84.5597 68.8653 84.552 69.1643 84.414 69.425C84.2914 69.6703 84.0844 69.839 83.793 69.931C83.4864 70.023 83.1874 70.0383 82.896 69.977C82.6047 69.9003 82.39 69.6703 82.252 69.287L80.734 65.17H74.363L72.799 69.356C72.6764 69.7087 72.477 69.9233 72.201 70C71.9404 70.0613 71.6567 70.0383 71.35 69.931C71.0587 69.8237 70.8517 69.6627 70.729 69.448C70.6064 69.218 70.6064 68.9343 70.729 68.597L76.203 54.475C76.3564 54.0763 76.548 53.808 76.778 53.67C77.008 53.5167 77.2764 53.44 77.583 53.44ZM77.56 56.269C77.4067 56.775 77.2534 57.258 77.1 57.718C76.9467 58.1627 76.7627 58.6763 76.548 59.259L75.053 63.238H80.044L78.572 59.259C78.3574 58.6763 78.1657 58.1473 77.997 57.672C77.8437 57.1967 77.698 56.729 77.56 56.269ZM93.2415 57.557C94.6215 57.557 95.6949 57.948 96.4615 58.73C97.2282 59.4967 97.6115 60.6007 97.6115 62.042V69.08C97.6115 69.402 97.4965 69.6397 97.2665 69.793C97.0365 69.9463 96.7759 70.023 96.4845 70.023C96.1932 70.023 95.9325 69.9463 95.7025 69.793C95.4725 69.6397 95.3575 69.402 95.3575 69.08V62.571C95.3575 61.467 95.1122 60.6927 94.6215 60.248C94.1462 59.788 93.4715 59.558 92.5975 59.558C92.1835 59.558 91.7849 59.6347 91.4015 59.788C91.0335 59.926 90.7039 60.1253 90.4125 60.386C90.1365 60.6467 89.9142 60.9687 89.7455 61.352C89.5769 61.72 89.4925 62.1417 89.4925 62.617V69.08C89.4925 69.402 89.3775 69.6397 89.1475 69.793C88.9175 69.9463 88.6492 70.023 88.3425 70.023C88.0512 70.023 87.7905 69.9463 87.5605 69.793C87.3305 69.6397 87.2155 69.402 87.2155 69.08V58.638C87.2155 58.316 87.3229 58.086 87.5375 57.948C87.7675 57.7947 88.0205 57.718 88.2965 57.718C88.5725 57.718 88.8179 57.7947 89.0325 57.948C89.2625 58.086 89.3775 58.316 89.3775 58.638V59.443H89.4235C89.7149 58.9063 90.2055 58.4617 90.8955 58.109C91.5855 57.741 92.3675 57.557 93.2415 57.557ZM106.245 57.557C108.008 57.557 109.388 58.0553 110.385 59.052C111.397 60.0333 111.903 61.4977 111.903 63.445V64.204C111.903 66.1513 111.397 67.6233 110.385 68.62C109.388 69.6013 108.008 70.092 106.245 70.092C104.482 70.092 103.094 69.6013 102.082 68.62C101.085 67.6233 100.587 66.1513 100.587 64.204V63.445C100.587 61.4977 101.085 60.0333 102.082 59.052C103.094 58.0553 104.482 57.557 106.245 57.557ZM106.245 59.558C105.141 59.558 104.298 59.8723 103.715 60.501C103.148 61.1297 102.864 62.134 102.864 63.514V64.135C102.864 65.5303 103.148 66.5423 103.715 67.171C104.298 67.7843 105.141 68.091 106.245 68.091C107.364 68.091 108.208 67.7843 108.775 67.171C109.342 66.5423 109.626 65.5303 109.626 64.135V63.514C109.626 62.134 109.342 61.1297 108.775 60.501C108.208 59.8723 107.364 59.558 106.245 59.558ZM116.863 54.498C117.17 54.498 117.438 54.5747 117.668 54.728C117.898 54.8813 118.013 55.1267 118.013 55.464V57.833H120.681C120.942 57.833 121.134 57.925 121.256 58.109C121.394 58.293 121.463 58.5153 121.463 58.776C121.463 59.0367 121.394 59.259 121.256 59.443C121.134 59.6117 120.942 59.696 120.681 59.696H118.013V66.274C118.013 66.964 118.121 67.4547 118.335 67.746C118.55 68.022 118.91 68.16 119.416 68.16C119.8 68.16 120.175 68.091 120.543 67.953C120.758 67.8763 120.965 67.884 121.164 67.976C121.364 68.0527 121.509 68.2367 121.601 68.528C121.693 68.7887 121.693 69.0263 121.601 69.241C121.525 69.4557 121.371 69.6167 121.141 69.724C120.605 69.9693 119.976 70.092 119.255 70.092C118.013 70.092 117.116 69.793 116.564 69.195C116.012 68.597 115.736 67.6233 115.736 66.274V59.696H114.356C114.096 59.696 113.896 59.6117 113.758 59.443C113.636 59.259 113.574 59.0367 113.574 58.776C113.574 58.5153 113.636 58.293 113.758 58.109C113.896 57.925 114.096 57.833 114.356 57.833H115.736V55.464C115.736 55.1267 115.851 54.8813 116.081 54.728C116.311 54.5747 116.572 54.498 116.863 54.498ZM125.29 52.865C125.581 52.865 125.834 52.9417 126.049 53.095C126.279 53.233 126.394 53.463 126.394 53.785V59.443H126.417C126.723 58.9063 127.214 58.4617 127.889 58.109C128.579 57.741 129.361 57.557 130.235 57.557C131.615 57.557 132.688 57.948 133.455 58.73C134.221 59.4967 134.605 60.6007 134.605 62.042V69.08C134.605 69.402 134.49 69.6397 134.26 69.793C134.03 69.9463 133.769 70.023 133.478 70.023C133.186 70.023 132.926 69.9463 132.696 69.793C132.466 69.6397 132.351 69.402 132.351 69.08V62.571C132.351 61.467 132.105 60.6927 131.615 60.248C131.139 59.788 130.465 59.558 129.591 59.558C129.177 59.558 128.778 59.6347 128.395 59.788C128.027 59.926 127.697 60.1253 127.406 60.386C127.13 60.6467 126.907 60.9687 126.739 61.352C126.57 61.72 126.486 62.1417 126.486 62.617V69.08C126.486 69.402 126.371 69.6397 126.141 69.793C125.911 69.9463 125.642 70.023 125.336 70.023C125.044 70.023 124.784 69.9463 124.554 69.793C124.324 69.6397 124.209 69.402 124.209 69.08V53.785C124.209 53.463 124.316 53.233 124.531 53.095C124.761 52.9417 125.014 52.865 125.29 52.865ZM143.077 57.557C143.875 57.557 144.595 57.6797 145.239 57.925C145.899 58.1703 146.458 58.5307 146.918 59.006C147.394 59.466 147.754 60.0333 147.999 60.708C148.26 61.3827 148.39 62.1493 148.39 63.008V63.054C148.39 63.6367 148.268 64.0507 148.022 64.296C147.777 64.526 147.355 64.641 146.757 64.641H139.811V64.733C139.811 65.837 140.103 66.688 140.685 67.286C141.268 67.884 142.111 68.183 143.215 68.183C143.905 68.183 144.503 68.1217 145.009 67.999C145.531 67.8763 146.037 67.6847 146.527 67.424C146.788 67.3013 147.026 67.2783 147.24 67.355C147.47 67.4163 147.647 67.5773 147.769 67.838C147.892 68.0987 147.923 68.3517 147.861 68.597C147.8 68.827 147.654 69.0033 147.424 69.126C146.872 69.4327 146.244 69.6703 145.538 69.839C144.848 70.0077 144.043 70.092 143.123 70.092C141.391 70.092 140.034 69.609 139.052 68.643C138.071 67.6617 137.58 66.1897 137.58 64.227V63.445C137.58 61.4977 138.071 60.0333 139.052 59.052C140.049 58.0553 141.391 57.557 143.077 57.557ZM143.031 59.466C141.989 59.466 141.191 59.765 140.639 60.363C140.087 60.9457 139.811 61.7507 139.811 62.778V62.916H146.205V62.709C146.205 61.7123 145.945 60.9227 145.423 60.34C144.902 59.7573 144.105 59.466 143.031 59.466ZM157.043 57.557C157.565 57.557 157.994 57.6413 158.331 57.81C158.776 58.0247 158.937 58.4157 158.814 58.983C158.738 59.305 158.592 59.558 158.377 59.742C158.178 59.9107 157.94 59.9643 157.664 59.903C157.48 59.8723 157.296 59.8417 157.112 59.811C156.928 59.765 156.729 59.742 156.514 59.742C156.085 59.742 155.694 59.8263 155.341 59.995C155.004 60.1637 154.713 60.4013 154.467 60.708C154.222 60.9993 154.03 61.3443 153.892 61.743C153.77 62.1417 153.708 62.5787 153.708 63.054V69.08C153.708 69.402 153.593 69.6397 153.363 69.793C153.133 69.9463 152.865 70.023 152.558 70.023C152.267 70.023 152.006 69.9463 151.776 69.793C151.546 69.6397 151.431 69.402 151.431 69.08V58.638C151.431 58.316 151.539 58.086 151.753 57.948C151.983 57.7947 152.236 57.718 152.512 57.718C152.804 57.718 153.057 57.7947 153.271 57.948C153.501 58.086 153.616 58.316 153.616 58.638V59.857H153.662C153.923 59.2437 154.345 58.707 154.927 58.247C155.51 57.787 156.215 57.557 157.043 57.557ZM176.429 53.44C176.72 53.44 176.996 53.5243 177.257 53.693C177.518 53.8617 177.709 54.1453 177.832 54.544L181.213 66.596L184.525 54.245C184.602 53.9077 184.763 53.6777 185.008 53.555C185.253 53.4323 185.529 53.4093 185.836 53.486C186.158 53.5473 186.388 53.693 186.526 53.923C186.664 54.153 186.687 54.429 186.595 54.751L182.616 68.919C182.493 69.3177 182.302 69.6013 182.041 69.77C181.78 69.9387 181.497 70.023 181.19 70.023C180.899 70.023 180.623 69.9387 180.362 69.77C180.101 69.586 179.91 69.2947 179.787 68.896L176.406 56.522L172.933 68.919C172.81 69.3177 172.611 69.6013 172.335 69.77C172.074 69.9387 171.798 70.023 171.507 70.023C171.2 70.023 170.917 69.9387 170.656 69.77C170.395 69.586 170.204 69.2947 170.081 68.896L166.148 54.866C166.056 54.498 166.087 54.199 166.24 53.969C166.393 53.7237 166.631 53.5627 166.953 53.486C167.26 53.4093 167.543 53.417 167.804 53.509C168.08 53.601 168.264 53.8387 168.356 54.222L171.622 66.619L175.003 54.544C175.11 54.1453 175.294 53.8617 175.555 53.693C175.831 53.5243 176.122 53.44 176.429 53.44ZM190.744 53.164C191.173 53.164 191.533 53.3097 191.825 53.601C192.116 53.877 192.262 54.2143 192.262 54.613C192.262 55.027 192.116 55.3797 191.825 55.671C191.533 55.947 191.173 56.085 190.744 56.085C190.314 56.085 189.954 55.947 189.663 55.671C189.371 55.3797 189.226 55.027 189.226 54.613C189.226 54.2143 189.371 53.877 189.663 53.601C189.954 53.3097 190.314 53.164 190.744 53.164ZM190.744 57.718C191.05 57.718 191.311 57.7947 191.526 57.948C191.756 58.1013 191.871 58.339 191.871 58.661V69.08C191.871 69.402 191.756 69.6397 191.526 69.793C191.311 69.9463 191.05 70.023 190.744 70.023C190.452 70.023 190.192 69.9463 189.962 69.793C189.732 69.6397 189.617 69.402 189.617 69.08V58.661C189.617 58.339 189.732 58.1013 189.962 57.948C190.192 57.7947 190.452 57.718 190.744 57.718ZM201.683 57.557C203.063 57.557 204.136 57.948 204.903 58.73C205.67 59.4967 206.053 60.6007 206.053 62.042V69.08C206.053 69.402 205.938 69.6397 205.708 69.793C205.478 69.9463 205.217 70.023 204.926 70.023C204.635 70.023 204.374 69.9463 204.144 69.793C203.914 69.6397 203.799 69.402 203.799 69.08V62.571C203.799 61.467 203.554 60.6927 203.063 60.248C202.588 59.788 201.913 59.558 201.039 59.558C200.625 59.558 200.226 59.6347 199.843 59.788C199.475 59.926 199.145 60.1253 198.854 60.386C198.578 60.6467 198.356 60.9687 198.187 61.352C198.018 61.72 197.934 62.1417 197.934 62.617V69.08C197.934 69.402 197.819 69.6397 197.589 69.793C197.359 69.9463 197.091 70.023 196.784 70.023C196.493 70.023 196.232 69.9463 196.002 69.793C195.772 69.6397 195.657 69.402 195.657 69.08V58.638C195.657 58.316 195.764 58.086 195.979 57.948C196.209 57.7947 196.462 57.718 196.738 57.718C197.014 57.718 197.259 57.7947 197.474 57.948C197.704 58.086 197.819 58.316 197.819 58.638V59.443H197.865C198.156 58.9063 198.647 58.4617 199.337 58.109C200.027 57.741 200.809 57.557 201.683 57.557ZM218.666 52.865C218.957 52.865 219.218 52.9417 219.448 53.095C219.678 53.2483 219.793 53.486 219.793 53.808V69.103C219.793 69.425 219.678 69.6627 219.448 69.816C219.233 69.954 218.988 70.023 218.712 70.023C218.436 70.023 218.183 69.954 217.953 69.816C217.738 69.6627 217.631 69.425 217.631 69.103V68.229H217.585C217.263 68.8423 216.764 69.31 216.09 69.632C215.415 69.9387 214.664 70.092 213.836 70.092C212.256 70.092 211.053 69.6013 210.225 68.62C209.412 67.6233 209.006 66.159 209.006 64.227V63.445C209.006 61.4823 209.458 60.0103 210.363 59.029C211.283 58.0477 212.509 57.557 214.043 57.557C214.963 57.557 215.706 57.718 216.274 58.04C216.856 58.3467 217.27 58.6917 217.516 59.075V53.808C217.516 53.486 217.631 53.2483 217.861 53.095C218.091 52.9417 218.359 52.865 218.666 52.865ZM214.342 59.535C213.345 59.535 212.578 59.8647 212.042 60.524C211.52 61.168 211.26 62.1723 211.26 63.537V64.135C211.26 65.515 211.497 66.527 211.973 67.171C212.463 67.815 213.222 68.137 214.25 68.137C214.71 68.137 215.139 68.0603 215.538 67.907C215.952 67.7383 216.304 67.5083 216.596 67.217C216.902 66.9257 217.14 66.5807 217.309 66.182C217.477 65.768 217.562 65.3157 217.562 64.825V62.18C217.562 61.858 217.493 61.536 217.355 61.214C217.217 60.892 217.01 60.6083 216.734 60.363C216.458 60.1177 216.12 59.9183 215.722 59.765C215.323 59.6117 214.863 59.535 214.342 59.535ZM228.523 57.557C230.286 57.557 231.666 58.0553 232.663 59.052C233.675 60.0333 234.181 61.4977 234.181 63.445V64.204C234.181 66.1513 233.675 67.6233 232.663 68.62C231.666 69.6013 230.286 70.092 228.523 70.092C226.759 70.092 225.372 69.6013 224.36 68.62C223.363 67.6233 222.865 66.1513 222.865 64.204V63.445C222.865 61.4977 223.363 60.0333 224.36 59.052C225.372 58.0553 226.759 57.557 228.523 57.557ZM228.523 59.558C227.419 59.558 226.575 59.8723 225.993 60.501C225.425 61.1297 225.142 62.134 225.142 63.514V64.135C225.142 65.5303 225.425 66.5423 225.993 67.171C226.575 67.7843 227.419 68.091 228.523 68.091C229.642 68.091 230.485 67.7843 231.053 67.171C231.62 66.5423 231.904 65.5303 231.904 64.135V63.514C231.904 62.134 231.62 61.1297 231.053 60.501C230.485 59.8723 229.642 59.558 228.523 59.558ZM244.317 57.718C244.609 57.718 244.877 57.8023 245.122 57.971C245.368 58.1397 245.544 58.4233 245.651 58.822L248.043 67.608H248.112L250.274 58.569C250.366 58.1703 250.535 57.9173 250.78 57.81C251.026 57.7027 251.302 57.6873 251.608 57.764C251.93 57.8407 252.16 57.994 252.298 58.224C252.452 58.4387 252.482 58.7223 252.39 59.075L249.768 68.804C249.646 69.2487 249.454 69.563 249.193 69.747C248.933 69.931 248.595 70.023 248.181 70.023C247.338 70.023 246.809 69.6243 246.594 68.827L244.317 60.731H244.248L241.971 68.827C241.772 69.6243 241.243 70.023 240.384 70.023C239.541 70.023 239.012 69.6243 238.797 68.827L236.152 59.121C236.06 58.7683 236.091 58.477 236.244 58.247C236.398 58.0017 236.635 57.8407 236.957 57.764C237.279 57.6873 237.578 57.7103 237.854 57.833C238.13 57.9403 238.307 58.201 238.383 58.615L240.476 67.608H240.545L242.983 58.845C243.075 58.431 243.244 58.1397 243.489 57.971C243.75 57.8023 244.026 57.718 244.317 57.718Z" fill="black"/>
</svg>
