<svg width="340" height="62" viewBox="0 0 340 62" fill="none" xmlns="http://www.w3.org/2000/svg">
<path d="M29.205 7.675C29.865 7.675 30.3417 7.91333 30.635 8.39C30.965 8.86667 31.13 9.41667 31.13 10.04C31.13 10.6633 30.965 11.2133 30.635 11.69C30.3417 12.1667 29.865 12.405 29.205 12.405H18.645V44.745C18.645 45.5517 18.37 46.1383 17.82 46.505C17.27 46.8717 16.6283 47.055 15.895 47.055C15.1617 47.055 14.52 46.8717 13.97 46.505C13.42 46.1383 13.145 45.5517 13.145 44.745V12.405H2.64C1.94333 12.405 1.43 12.1667 1.1 11.69C0.806667 11.2133 0.66 10.6633 0.66 10.04C0.66 9.41667 0.806667 8.86667 1.1 8.39C1.43 7.91333 1.94333 7.675 2.64 7.675H29.205ZM39.1119 6.74C40.1385 6.74 41.0002 7.08833 41.6969 7.785C42.3935 8.445 42.7419 9.25166 42.7419 10.205C42.7419 11.195 42.3935 12.0383 41.6969 12.735C41.0002 13.395 40.1385 13.725 39.1119 13.725C38.0852 13.725 37.2235 13.395 36.5269 12.735C35.8302 12.0383 35.4819 11.195 35.4819 10.205C35.4819 9.25166 35.8302 8.445 36.5269 7.785C37.2235 7.08833 38.0852 6.74 39.1119 6.74ZM39.1119 17.63C39.8452 17.63 40.4685 17.8133 40.9819 18.18C41.5319 18.5467 41.8069 19.115 41.8069 19.885V44.8C41.8069 45.57 41.5319 46.1383 40.9819 46.505C40.4685 46.8717 39.8452 47.055 39.1119 47.055C38.4152 47.055 37.7919 46.8717 37.2419 46.505C36.6919 46.1383 36.4169 45.57 36.4169 44.8V19.885C36.4169 19.115 36.6919 18.5467 37.2419 18.18C37.7919 17.8133 38.4152 17.63 39.1119 17.63ZM65.2713 17.245C68.5713 17.245 71.1379 18.18 72.9713 20.05C74.8046 21.8833 75.7213 24.5233 75.7213 27.97V44.8C75.7213 45.57 75.4463 46.1383 74.8963 46.505C74.3463 46.8717 73.7229 47.055 73.0263 47.055C72.3296 47.055 71.7063 46.8717 71.1563 46.505C70.6063 46.1383 70.3313 45.57 70.3313 44.8V29.235C70.3313 26.595 69.7446 24.7433 68.5713 23.68C67.4346 22.58 65.8213 22.03 63.7313 22.03C62.7413 22.03 61.7879 22.2133 60.8713 22.58C59.9913 22.91 59.2029 23.3867 58.5063 24.01C57.8463 24.6333 57.3146 25.4033 56.9113 26.32C56.5079 27.2 56.3063 28.2083 56.3063 29.345V44.8C56.3063 45.57 56.0313 46.1383 55.4813 46.505C54.9313 46.8717 54.2896 47.055 53.5563 47.055C52.8596 47.055 52.2363 46.8717 51.6863 46.505C51.1363 46.1383 50.8613 45.57 50.8613 44.8V19.83C50.8613 19.06 51.1179 18.51 51.6313 18.18C52.1813 17.8133 52.7863 17.63 53.4463 17.63C54.1063 17.63 54.6929 17.8133 55.2063 18.18C55.7563 18.51 56.0313 19.06 56.0313 19.83V21.755H56.1413C56.8379 20.4717 58.0113 19.4083 59.6613 18.565C61.3113 17.685 63.1813 17.245 65.2713 17.245ZM87.0719 6.025C87.8052 6.025 88.4469 6.20833 88.9969 6.575C89.5469 6.94167 89.8219 7.51 89.8219 8.28V30.995L102.857 18.4C103.407 17.85 104.049 17.5933 104.782 17.63C105.515 17.6667 106.12 17.9417 106.597 18.455C107.11 19.005 107.367 19.61 107.367 20.27C107.404 20.93 107.11 21.5167 106.487 22.03L97.7419 30.005L108.082 42.765C108.595 43.3883 108.779 44.03 108.632 44.69C108.522 45.35 108.21 45.9 107.697 46.34C107.11 46.8533 106.45 47.0917 105.717 47.055C105.02 47.055 104.434 46.7433 103.957 46.12L93.9469 33.36L89.8219 37.1V44.8C89.8219 45.57 89.5469 46.1383 88.9969 46.505C88.4469 46.8717 87.8052 47.055 87.0719 47.055C86.3752 47.055 85.7519 46.8717 85.2019 46.505C84.6519 46.1383 84.3769 45.57 84.3769 44.8V8.28C84.3769 7.51 84.6519 6.94167 85.2019 6.575C85.7519 6.20833 86.3752 6.025 87.0719 6.025ZM126.275 17.245C128.182 17.245 129.905 17.5383 131.445 18.125C133.022 18.7117 134.36 19.5733 135.46 20.71C136.597 21.81 137.458 23.1667 138.045 24.78C138.668 26.3933 138.98 28.2267 138.98 30.28V30.39C138.98 31.7833 138.687 32.7733 138.1 33.36C137.513 33.91 136.505 34.185 135.075 34.185H118.465V34.405C118.465 37.045 119.162 39.08 120.555 40.51C121.948 41.94 123.965 42.655 126.605 42.655C128.255 42.655 129.685 42.5083 130.895 42.215C132.142 41.9217 133.352 41.4633 134.525 40.84C135.148 40.5467 135.717 40.4917 136.23 40.675C136.78 40.8217 137.202 41.2067 137.495 41.83C137.788 42.4533 137.862 43.0583 137.715 43.645C137.568 44.195 137.22 44.6167 136.67 44.91C135.35 45.6433 133.847 46.2117 132.16 46.615C130.51 47.0183 128.585 47.22 126.385 47.22C122.242 47.22 118.997 46.065 116.65 43.755C114.303 41.4083 113.13 37.8883 113.13 33.195V31.325C113.13 26.6683 114.303 23.1667 116.65 20.82C119.033 18.4367 122.242 17.245 126.275 17.245ZM126.165 21.81C123.672 21.81 121.765 22.525 120.445 23.955C119.125 25.3483 118.465 27.2733 118.465 29.73V30.06H133.755V29.565C133.755 27.1817 133.132 25.2933 131.885 23.9C130.638 22.5067 128.732 21.81 126.165 21.81ZM159.672 17.245C160.919 17.245 161.945 17.4467 162.752 17.85C163.815 18.3633 164.2 19.2983 163.907 20.655C163.724 21.425 163.375 22.03 162.862 22.47C162.385 22.8733 161.817 23.0017 161.157 22.855C160.717 22.7817 160.277 22.7083 159.837 22.635C159.397 22.525 158.92 22.47 158.407 22.47C157.38 22.47 156.445 22.6717 155.602 23.075C154.795 23.4783 154.099 24.0467 153.512 24.78C152.925 25.4767 152.467 26.3017 152.137 27.255C151.844 28.2083 151.697 29.2533 151.697 30.39V44.8C151.697 45.57 151.422 46.1383 150.872 46.505C150.322 46.8717 149.68 47.055 148.947 47.055C148.25 47.055 147.627 46.8717 147.077 46.505C146.527 46.1383 146.252 45.57 146.252 44.8V19.83C146.252 19.06 146.509 18.51 147.022 18.18C147.572 17.8133 148.177 17.63 148.837 17.63C149.534 17.63 150.139 17.8133 150.652 18.18C151.202 18.51 151.477 19.06 151.477 19.83V22.745H151.587C152.21 21.2783 153.219 19.995 154.612 18.895C156.005 17.795 157.692 17.245 159.672 17.245Z" fill="black"/>
<path d="M198.439 7.62C199.135 7.87666 199.649 8.28 199.979 8.83C200.309 9.34333 200.327 10.0217 200.034 10.865L187.109 44.58C186.705 45.5333 186.21 46.1933 185.624 46.56C185.074 46.89 184.432 47.055 183.699 47.055C182.965 47.055 182.305 46.89 181.719 46.56C181.169 46.1933 180.692 45.5333 180.289 44.58L167.584 10.92C167.254 10.0767 167.254 9.38 167.584 8.83C167.914 8.28 168.445 7.87666 169.179 7.62C169.912 7.32666 170.627 7.29 171.324 7.51C172.02 7.73 172.515 8.24333 172.809 9.05L183.809 39.96L194.864 9.105C195.157 8.26167 195.634 7.73 196.294 7.51C196.99 7.29 197.705 7.32666 198.439 7.62Z" fill="#FF5000"/>
<path d="M230.374 7.675C231.034 7.675 231.511 7.91333 231.804 8.39C232.134 8.83 232.299 9.36166 232.299 9.985C232.299 10.6083 232.134 11.1583 231.804 11.635C231.511 12.075 231.034 12.295 230.374 12.295H212.774V24.45H229.274C229.897 24.45 230.356 24.67 230.649 25.11C230.979 25.55 231.144 26.0817 231.144 26.705C231.144 27.3283 230.979 27.8783 230.649 28.355C230.356 28.795 229.897 29.015 229.274 29.015H212.774V42.16H230.759C231.419 42.16 231.896 42.3983 232.189 42.875C232.519 43.315 232.684 43.8467 232.684 44.47C232.684 45.0933 232.519 45.6433 232.189 46.12C231.896 46.56 231.419 46.78 230.759 46.78H211.509C209.896 46.78 208.777 46.4867 208.154 45.9C207.567 45.3133 207.274 44.25 207.274 42.71V11.745C207.274 10.205 207.567 9.14166 208.154 8.555C208.777 7.96833 209.896 7.675 211.509 7.675H230.374Z" fill="#FFD241"/>
<path d="M254.707 7.675C258.777 7.675 261.949 8.61 264.222 10.48C266.495 12.35 267.632 15.0633 267.632 18.62V19.555C267.632 22.1583 267.009 24.3033 265.762 25.99C264.552 27.64 262.847 28.85 260.647 29.62L267.907 43.26C268.31 43.9933 268.384 44.6717 268.127 45.295C267.907 45.9183 267.467 46.395 266.807 46.725C266.074 47.0183 265.377 47.11 264.717 47C264.057 46.89 263.544 46.4683 263.177 45.735L255.367 30.5C255.074 30.5733 254.762 30.61 254.432 30.61C254.139 30.61 253.845 30.61 253.552 30.61H246.237V44.745C246.237 45.5517 245.944 46.1383 245.357 46.505C244.807 46.8717 244.165 47.055 243.432 47.055C242.699 47.055 242.057 46.8717 241.507 46.505C240.957 46.1383 240.682 45.5517 240.682 44.745V11.745C240.682 10.205 240.975 9.14166 241.562 8.555C242.185 7.96833 243.304 7.675 244.917 7.675H254.707ZM253.552 25.935C256.595 25.935 258.795 25.385 260.152 24.285C261.509 23.185 262.187 21.59 262.187 19.5V18.73C262.187 16.6033 261.527 15.0083 260.207 13.945C258.887 12.8817 256.852 12.35 254.102 12.35H246.237V25.935H253.552Z" fill="#9632A5"/>
<path d="M288.995 7.07C293.175 7.07 296.603 7.82167 299.28 9.325C299.903 9.655 300.307 10.15 300.49 10.81C300.673 11.4333 300.582 12.0567 300.215 12.68C299.848 13.34 299.39 13.7617 298.84 13.945C298.29 14.0917 297.703 14.0183 297.08 13.725C295.907 13.1383 294.678 12.7167 293.395 12.46C292.148 12.1667 290.718 12.02 289.105 12.02C287.822 12.02 286.667 12.1667 285.64 12.46C284.65 12.7533 283.807 13.1567 283.11 13.67C282.413 14.1833 281.863 14.7883 281.46 15.485C281.093 16.145 280.91 16.86 280.91 17.63V18.18C280.91 18.9867 281.038 19.7017 281.295 20.325C281.552 20.9117 282.01 21.4617 282.67 21.975C283.33 22.4517 284.21 22.8917 285.31 23.295C286.447 23.6617 287.877 24.0283 289.6 24.395C292.02 24.9083 294.055 25.495 295.705 26.155C297.355 26.815 298.693 27.6033 299.72 28.52C300.747 29.4 301.48 30.4267 301.92 31.6C302.36 32.7733 302.58 34.0933 302.58 35.56V36.33C302.58 39.7767 301.37 42.49 298.95 44.47C296.53 46.4133 293.047 47.385 288.5 47.385C286.19 47.385 283.953 47.0917 281.79 46.505C279.663 45.8817 277.848 45.075 276.345 44.085C275.648 43.6817 275.245 43.15 275.135 42.49C275.062 41.7933 275.227 41.1333 275.63 40.51C276.033 39.8867 276.528 39.5017 277.115 39.355C277.702 39.1717 278.307 39.2817 278.93 39.685C280.323 40.5283 281.845 41.2067 283.495 41.72C285.145 42.1967 286.905 42.435 288.775 42.435C291.525 42.435 293.597 41.885 294.99 40.785C296.383 39.685 297.08 38.31 297.08 36.66V36.055C297.08 35.1383 296.933 34.35 296.64 33.69C296.347 32.9933 295.852 32.3883 295.155 31.875C294.458 31.3617 293.542 30.9217 292.405 30.555C291.268 30.1517 289.857 29.7667 288.17 29.4C286.007 28.96 284.118 28.465 282.505 27.915C280.928 27.3283 279.608 26.6133 278.545 25.77C277.518 24.9267 276.748 23.9183 276.235 22.745C275.722 21.535 275.465 20.0683 275.465 18.345V17.685C275.465 16.1817 275.758 14.7883 276.345 13.505C276.968 12.185 277.848 11.0483 278.985 10.095C280.158 9.14167 281.588 8.40833 283.275 7.895C284.962 7.345 286.868 7.07 288.995 7.07Z" fill="#73DCFF"/>
<path d="M333.445 7.675C334.105 7.675 334.582 7.91333 334.875 8.39C335.205 8.83 335.37 9.36166 335.37 9.985C335.37 10.6083 335.205 11.1583 334.875 11.635C334.582 12.075 334.105 12.295 333.445 12.295H315.845V24.45H332.345C332.969 24.45 333.427 24.67 333.72 25.11C334.05 25.55 334.215 26.0817 334.215 26.705C334.215 27.3283 334.05 27.8783 333.72 28.355C333.427 28.795 332.969 29.015 332.345 29.015H315.845V42.16H333.83C334.49 42.16 334.967 42.3983 335.26 42.875C335.59 43.315 335.755 43.8467 335.755 44.47C335.755 45.0933 335.59 45.6433 335.26 46.12C334.967 46.56 334.49 46.78 333.83 46.78H314.58C312.967 46.78 311.849 46.4867 311.225 45.9C310.639 45.3133 310.345 44.25 310.345 42.71V11.745C310.345 10.205 310.639 9.14166 311.225 8.555C311.849 7.96833 312.967 7.675 314.58 7.675H333.445Z" fill="#1EEBC8"/>
</svg>
