<svg width="256" height="76" viewBox="0 0 256 76" fill="none" xmlns="http://www.w3.org/2000/svg">
<path d="M22.0365 6.3275C22.5345 6.3275 22.8942 6.50733 23.1155 6.867C23.3645 7.22667 23.489 7.64167 23.489 8.112C23.489 8.58233 23.3645 8.99733 23.1155 9.357C22.8942 9.71667 22.5345 9.8965 22.0365 9.8965H14.0685V34.2985C14.0685 34.9072 13.861 35.3498 13.446 35.6265C13.031 35.9032 12.5468 36.0415 11.9935 36.0415C11.4402 36.0415 10.956 35.9032 10.541 35.6265C10.126 35.3498 9.9185 34.9072 9.9185 34.2985V9.8965H1.992C1.46633 9.8965 1.079 9.71667 0.83 9.357C0.608667 8.99733 0.498 8.58233 0.498 8.112C0.498 7.64167 0.608667 7.22667 0.83 6.867C1.079 6.50733 1.46633 6.3275 1.992 6.3275H22.0365ZM29.5117 5.622C30.2864 5.622 30.9365 5.88483 31.4622 6.4105C31.9879 6.9085 32.2507 7.51716 32.2507 8.2365C32.2507 8.9835 31.9879 9.61983 31.4622 10.1455C30.9365 10.6435 30.2864 10.8925 29.5117 10.8925C28.737 10.8925 28.0869 10.6435 27.5612 10.1455C27.0355 9.61983 26.7727 8.9835 26.7727 8.2365C26.7727 7.51716 27.0355 6.9085 27.5612 6.4105C28.0869 5.88483 28.737 5.622 29.5117 5.622ZM29.5117 13.839C30.065 13.839 30.5354 13.9773 30.9227 14.254C31.3377 14.5307 31.5452 14.9595 31.5452 15.5405V34.34C31.5452 34.921 31.3377 35.3498 30.9227 35.6265C30.5354 35.9032 30.065 36.0415 29.5117 36.0415C28.986 36.0415 28.5157 35.9032 28.1007 35.6265C27.6857 35.3498 27.4782 34.921 27.4782 34.34V15.5405C27.4782 14.9595 27.6857 14.5307 28.1007 14.254C28.5157 13.9773 28.986 13.839 29.5117 13.839ZM49.2501 13.5485C51.7401 13.5485 53.6768 14.254 55.0601 15.665C56.4435 17.0483 57.1351 19.0403 57.1351 21.641V34.34C57.1351 34.921 56.9276 35.3498 56.5126 35.6265C56.0976 35.9032 55.6273 36.0415 55.1016 36.0415C54.576 36.0415 54.1056 35.9032 53.6906 35.6265C53.2756 35.3498 53.0681 34.921 53.0681 34.34V22.5955C53.0681 20.6035 52.6255 19.2063 51.7401 18.404C50.8825 17.574 49.6651 17.159 48.0881 17.159C47.3411 17.159 46.6218 17.2973 45.9301 17.574C45.2661 17.823 44.6713 18.1827 44.1456 18.653C43.6476 19.1233 43.2465 19.7043 42.9421 20.396C42.6378 21.06 42.4856 21.8208 42.4856 22.6785V34.34C42.4856 34.921 42.2781 35.3498 41.8631 35.6265C41.4481 35.9032 40.964 36.0415 40.4106 36.0415C39.885 36.0415 39.4146 35.9032 38.9996 35.6265C38.5846 35.3498 38.3771 34.921 38.3771 34.34V15.499C38.3771 14.918 38.5708 14.503 38.9581 14.254C39.3731 13.9773 39.8296 13.839 40.3276 13.839C40.8256 13.839 41.2683 13.9773 41.6556 14.254C42.0706 14.503 42.2781 14.918 42.2781 15.499V16.9515H42.3611C42.8868 15.9832 43.7721 15.1808 45.0171 14.5445C46.2621 13.8805 47.6731 13.5485 49.2501 13.5485ZM65.6997 5.0825C66.253 5.0825 66.7372 5.22083 67.1522 5.4975C67.5672 5.77417 67.7747 6.203 67.7747 6.784V23.9235L77.6102 14.42C78.0252 14.005 78.5094 13.8113 79.0627 13.839C79.616 13.8667 80.0725 14.0742 80.4322 14.4615C80.8195 14.8765 81.0132 15.333 81.0132 15.831C81.0409 16.329 80.8195 16.7717 80.3492 17.159L73.7507 23.1765L81.5527 32.8045C81.94 33.2748 82.0784 33.759 81.9677 34.257C81.8847 34.755 81.6495 35.17 81.2622 35.502C80.8195 35.8893 80.3215 36.0692 79.7682 36.0415C79.2425 36.0415 78.7999 35.8063 78.4402 35.336L70.8872 25.708L67.7747 28.53V34.34C67.7747 34.921 67.5672 35.3498 67.1522 35.6265C66.7372 35.9032 66.253 36.0415 65.6997 36.0415C65.174 36.0415 64.7037 35.9032 64.2887 35.6265C63.8737 35.3498 63.6662 34.921 63.6662 34.34V6.784C63.6662 6.203 63.8737 5.77417 64.2887 5.4975C64.7037 5.22083 65.174 5.0825 65.6997 5.0825ZM95.2801 13.5485C96.7188 13.5485 98.0191 13.7698 99.1811 14.2125C100.371 14.6552 101.381 15.3053 102.211 16.163C103.068 16.993 103.718 18.0167 104.161 19.234C104.631 20.4513 104.867 21.8347 104.867 23.384V23.467C104.867 24.5183 104.645 25.2653 104.203 25.708C103.76 26.123 102.999 26.3305 101.92 26.3305H89.3871V26.4965C89.3871 28.4885 89.9128 30.024 90.9641 31.103C92.0154 32.182 93.5371 32.7215 95.5291 32.7215C96.7741 32.7215 97.8531 32.6108 98.7661 32.3895C99.7068 32.1682 100.62 31.8223 101.505 31.352C101.975 31.1307 102.404 31.0892 102.792 31.2275C103.207 31.3382 103.525 31.6287 103.746 32.099C103.967 32.5693 104.023 33.0258 103.912 33.4685C103.801 33.8835 103.539 34.2017 103.124 34.423C102.128 34.9763 100.993 35.4052 99.7206 35.7095C98.4756 36.0138 97.0231 36.166 95.3631 36.166C92.2368 36.166 89.7883 35.2945 88.0176 33.5515C86.2469 31.7808 85.3616 29.1248 85.3616 25.5835V24.1725C85.3616 20.6588 86.2469 18.0167 88.0176 16.246C89.8159 14.4477 92.2368 13.5485 95.2801 13.5485ZM95.1971 16.993C93.3158 16.993 91.8771 17.5325 90.8811 18.6115C89.8851 19.6628 89.3871 21.1153 89.3871 22.969V23.218H100.924V22.8445C100.924 21.0462 100.454 19.6213 99.5131 18.57C98.5724 17.5187 97.1338 16.993 95.1971 16.993ZM120.48 13.5485C121.42 13.5485 122.195 13.7007 122.804 14.005C123.606 14.3923 123.897 15.0978 123.675 16.1215C123.537 16.7025 123.274 17.159 122.887 17.491C122.527 17.7953 122.098 17.8922 121.6 17.7815C121.268 17.7262 120.936 17.6708 120.604 17.6155C120.272 17.5325 119.913 17.491 119.525 17.491C118.751 17.491 118.045 17.6432 117.409 17.9475C116.8 18.2518 116.274 18.6807 115.832 19.234C115.389 19.7597 115.043 20.3822 114.794 21.1015C114.573 21.8208 114.462 22.6093 114.462 23.467V34.34C114.462 34.921 114.255 35.3498 113.84 35.6265C113.425 35.9032 112.941 36.0415 112.387 36.0415C111.862 36.0415 111.391 35.9032 110.976 35.6265C110.561 35.3498 110.354 34.921 110.354 34.34V15.499C110.354 14.918 110.547 14.503 110.935 14.254C111.35 13.9773 111.806 13.839 112.304 13.839C112.83 13.839 113.286 13.9773 113.674 14.254C114.089 14.503 114.296 14.918 114.296 15.499V17.6985H114.379C114.85 16.5918 115.61 15.6235 116.662 14.7935C117.713 13.9635 118.986 13.5485 120.48 13.5485Z" fill="black"/>
<path d="M149.731 6.286C150.257 6.47966 150.644 6.784 150.893 7.199C151.142 7.58633 151.156 8.09817 150.935 8.7345L141.182 34.174C140.878 34.8933 140.504 35.3913 140.062 35.668C139.647 35.917 139.162 36.0415 138.609 36.0415C138.056 36.0415 137.558 35.917 137.115 35.668C136.7 35.3913 136.34 34.8933 136.036 34.174L126.45 8.776C126.201 8.13967 126.201 7.614 126.45 7.199C126.699 6.784 127.1 6.47966 127.653 6.286C128.206 6.06467 128.746 6.037 129.272 6.203C129.797 6.369 130.171 6.75633 130.392 7.365L138.692 30.688L147.034 7.4065C147.255 6.77017 147.615 6.369 148.113 6.203C148.638 6.037 149.178 6.06467 149.731 6.286Z" fill="#FF5000"/>
<path d="M173.828 6.3275C174.326 6.3275 174.685 6.50733 174.907 6.867C175.156 7.199 175.28 7.60016 175.28 8.0705C175.28 8.54083 175.156 8.95583 174.907 9.3155C174.685 9.6475 174.326 9.8135 173.828 9.8135H160.548V18.985H172.998C173.468 18.985 173.814 19.151 174.035 19.483C174.284 19.815 174.409 20.2162 174.409 20.6865C174.409 21.1568 174.284 21.5718 174.035 21.9315C173.814 22.2635 173.468 22.4295 172.998 22.4295H160.548V32.348H174.118C174.616 32.348 174.976 32.5278 175.197 32.8875C175.446 33.2195 175.571 33.6207 175.571 34.091C175.571 34.5613 175.446 34.9763 175.197 35.336C174.976 35.668 174.616 35.834 174.118 35.834H159.593C158.376 35.834 157.532 35.6127 157.062 35.17C156.619 34.7273 156.398 33.925 156.398 32.763V9.3985C156.398 8.2365 156.619 7.43417 157.062 6.9915C157.532 6.54883 158.376 6.3275 159.593 6.3275H173.828Z" fill="#FFD241"/>
<path d="M192.188 6.3275C195.259 6.3275 197.652 7.033 199.368 8.444C201.083 9.855 201.941 11.9023 201.941 14.586V15.2915C201.941 17.2558 201.47 18.8743 200.53 20.147C199.617 21.392 198.33 22.305 196.67 22.886L202.148 33.178C202.452 33.7313 202.508 34.2432 202.314 34.7135C202.148 35.1838 201.816 35.5435 201.318 35.7925C200.765 36.0138 200.239 36.083 199.741 36C199.243 35.917 198.856 35.5988 198.579 35.0455L192.686 23.55C192.465 23.6053 192.23 23.633 191.981 23.633C191.759 23.633 191.538 23.633 191.317 23.633H185.797V34.2985C185.797 34.9072 185.576 35.3498 185.133 35.6265C184.718 35.9032 184.234 36.0415 183.681 36.0415C183.127 36.0415 182.643 35.9032 182.228 35.6265C181.813 35.3498 181.606 34.9072 181.606 34.2985V9.3985C181.606 8.2365 181.827 7.43417 182.27 6.9915C182.74 6.54883 183.584 6.3275 184.801 6.3275H192.188ZM191.317 20.1055C193.613 20.1055 195.273 19.6905 196.297 18.8605C197.32 18.0305 197.832 16.827 197.832 15.25V14.669C197.832 13.0643 197.334 11.8608 196.338 11.0585C195.342 10.2562 193.807 9.855 191.732 9.855H185.797V20.1055H191.317Z" fill="#9632A5"/>
<path d="M218.06 5.871C221.214 5.871 223.801 6.43817 225.82 7.5725C226.291 7.8215 226.595 8.195 226.733 8.693C226.872 9.16333 226.802 9.63367 226.526 10.104C226.249 10.602 225.903 10.9202 225.488 11.0585C225.073 11.1692 224.631 11.1138 224.16 10.8925C223.275 10.4498 222.348 10.1317 221.38 9.938C220.439 9.71667 219.36 9.606 218.143 9.606C217.174 9.606 216.303 9.71667 215.528 9.938C214.781 10.1593 214.145 10.4637 213.619 10.851C213.094 11.2383 212.679 11.6948 212.374 12.2205C212.098 12.7185 211.959 13.258 211.959 13.839V14.254C211.959 14.8627 212.056 15.4022 212.25 15.8725C212.443 16.3152 212.789 16.7302 213.287 17.1175C213.785 17.4772 214.449 17.8092 215.279 18.1135C216.137 18.3902 217.216 18.6668 218.516 18.9435C220.342 19.3308 221.878 19.7735 223.123 20.2715C224.368 20.7695 225.378 21.3643 226.152 22.056C226.927 22.72 227.48 23.4947 227.812 24.38C228.144 25.2653 228.31 26.2613 228.31 27.368V27.949C228.31 30.5497 227.397 32.597 225.571 34.091C223.745 35.5573 221.117 36.2905 217.686 36.2905C215.943 36.2905 214.256 36.0692 212.623 35.6265C211.019 35.1562 209.649 34.5475 208.515 33.8005C207.989 33.4962 207.685 33.095 207.602 32.597C207.546 32.0713 207.671 31.5733 207.975 31.103C208.28 30.6327 208.653 30.3422 209.096 30.2315C209.538 30.0932 209.995 30.1762 210.465 30.4805C211.517 31.1168 212.665 31.6287 213.91 32.016C215.155 32.3757 216.483 32.5555 217.894 32.5555C219.969 32.5555 221.532 32.1405 222.583 31.3105C223.635 30.4805 224.16 29.443 224.16 28.198V27.7415C224.16 27.0498 224.05 26.455 223.828 25.957C223.607 25.4313 223.233 24.9748 222.708 24.5875C222.182 24.2002 221.49 23.8682 220.633 23.5915C219.775 23.2872 218.71 22.9967 217.437 22.72C215.805 22.388 214.38 22.0145 213.163 21.5995C211.973 21.1568 210.977 20.6173 210.175 19.981C209.4 19.3447 208.819 18.5838 208.432 17.6985C208.044 16.7855 207.851 15.6788 207.851 14.3785V13.8805C207.851 12.7462 208.072 11.6948 208.515 10.7265C208.985 9.7305 209.649 8.87283 210.507 8.1535C211.392 7.43417 212.471 6.88083 213.744 6.4935C215.016 6.0785 216.455 5.871 218.06 5.871Z" fill="#73DCFF"/>
<path d="M251.6 6.3275C252.098 6.3275 252.457 6.50733 252.679 6.867C252.928 7.199 253.052 7.60016 253.052 8.0705C253.052 8.54083 252.928 8.95583 252.679 9.3155C252.457 9.6475 252.098 9.8135 251.6 9.8135H238.32V18.985H250.77C251.24 18.985 251.586 19.151 251.807 19.483C252.056 19.815 252.181 20.2162 252.181 20.6865C252.181 21.1568 252.056 21.5718 251.807 21.9315C251.586 22.2635 251.24 22.4295 250.77 22.4295H238.32V32.348H251.89C252.388 32.348 252.748 32.5278 252.969 32.8875C253.218 33.2195 253.343 33.6207 253.343 34.091C253.343 34.5613 253.218 34.9763 252.969 35.336C252.748 35.668 252.388 35.834 251.89 35.834H237.365C236.148 35.834 235.304 35.6127 234.834 35.17C234.391 34.7273 234.17 33.925 234.17 32.763V9.3985C234.17 8.2365 234.391 7.43417 234.834 6.9915C235.304 6.54883 236.148 6.3275 237.365 6.3275H251.6Z" fill="#1EEBC8"/>
<path d="M14.75 53.44C15.0107 53.4707 15.21 53.5627 15.348 53.716C15.5013 53.8693 15.5627 54.084 15.532 54.36L15.049 57.879H18.131L18.637 54.199C18.6677 53.9537 18.775 53.762 18.959 53.624C19.1583 53.4707 19.4037 53.4093 19.695 53.44C19.9557 53.4707 20.1627 53.5627 20.316 53.716C20.4693 53.8693 20.523 54.084 20.477 54.36L19.994 57.879H21.512C21.8033 57.879 22.0103 57.9787 22.133 58.178C22.271 58.362 22.34 58.5843 22.34 58.845C22.34 59.1057 22.271 59.328 22.133 59.512C22.0103 59.696 21.8033 59.788 21.512 59.788H19.718L19.212 63.56H20.776C21.0673 63.56 21.2743 63.6597 21.397 63.859C21.535 64.043 21.604 64.2653 21.604 64.526C21.604 64.7867 21.535 65.009 21.397 65.193C21.2743 65.377 21.0673 65.469 20.776 65.469H18.959L18.43 69.218C18.3993 69.4787 18.292 69.678 18.108 69.816C17.924 69.954 17.6787 70.0153 17.372 70C17.1113 69.9693 16.9043 69.8773 16.751 69.724C16.613 69.5707 16.5593 69.356 16.59 69.08L17.096 65.469H13.991L13.485 69.218C13.4543 69.4787 13.3393 69.678 13.14 69.816C12.956 69.954 12.7183 70.0153 12.427 70C12.1663 69.9693 11.9593 69.8773 11.806 69.724C11.6527 69.5707 11.5913 69.356 11.622 69.08L12.128 65.469H10.587C10.311 65.469 10.104 65.377 9.966 65.193C9.84333 65.009 9.782 64.7867 9.782 64.526C9.782 64.2653 9.84333 64.043 9.966 63.859C10.104 63.6597 10.311 63.56 10.587 63.56H12.381L12.91 59.788H11.323C11.0317 59.788 10.817 59.696 10.679 59.512C10.5563 59.328 10.495 59.1057 10.495 58.845C10.495 58.5843 10.5563 58.362 10.679 58.178C10.817 57.9787 11.0317 57.879 11.323 57.879H13.163L13.692 54.199C13.7227 53.9537 13.83 53.762 14.014 53.624C14.198 53.4707 14.4433 53.4093 14.75 53.44ZM17.349 63.56L17.878 59.788H14.75L14.244 63.56H17.349ZM30.2552 53.302C32.3252 53.302 33.8202 53.9767 34.7402 55.326C35.6756 56.6753 36.1432 58.6227 36.1432 61.168V62.295C36.1432 64.8403 35.6756 66.7877 34.7402 68.137C33.8202 69.4863 32.3252 70.161 30.2552 70.161C28.1852 70.161 26.6826 69.4863 25.7472 68.137C24.8272 66.7877 24.3672 64.8403 24.3672 62.295V61.168C24.3672 58.6227 24.8272 56.6753 25.7472 55.326C26.6826 53.9767 28.1852 53.302 30.2552 53.302ZM30.2552 55.464C29.5806 55.464 29.0132 55.579 28.5532 55.809C28.0932 56.039 27.7252 56.3993 27.4492 56.89C27.1732 57.3653 26.9739 57.971 26.8512 58.707C26.7439 59.443 26.6902 60.3247 26.6902 61.352V62.111C26.6902 63.1383 26.7439 64.02 26.8512 64.756C26.9739 65.492 27.1732 66.1053 27.4492 66.596C27.7252 67.0713 28.0932 67.424 28.5532 67.654C29.0132 67.884 29.5806 67.999 30.2552 67.999C30.9299 67.999 31.4972 67.884 31.9572 67.654C32.4172 67.424 32.7852 67.0713 33.0612 66.596C33.3372 66.1053 33.5289 65.492 33.6362 64.756C33.7589 64.02 33.8202 63.1383 33.8202 62.111V61.352C33.8202 60.3247 33.7589 59.443 33.6362 58.707C33.5289 57.971 33.3372 57.3653 33.0612 56.89C32.7852 56.3993 32.4172 56.039 31.9572 55.809C31.4972 55.579 30.9299 55.464 30.2552 55.464ZM44.2933 53.302C46.3633 53.302 47.8583 53.9767 48.7783 55.326C49.7137 56.6753 50.1813 58.6227 50.1813 61.168V62.295C50.1813 64.8403 49.7137 66.7877 48.7783 68.137C47.8583 69.4863 46.3633 70.161 44.2933 70.161C42.2233 70.161 40.7207 69.4863 39.7853 68.137C38.8653 66.7877 38.4053 64.8403 38.4053 62.295V61.168C38.4053 58.6227 38.8653 56.6753 39.7853 55.326C40.7207 53.9767 42.2233 53.302 44.2933 53.302ZM44.2933 55.464C43.6187 55.464 43.0513 55.579 42.5913 55.809C42.1313 56.039 41.7633 56.3993 41.4873 56.89C41.2113 57.3653 41.012 57.971 40.8893 58.707C40.782 59.443 40.7283 60.3247 40.7283 61.352V62.111C40.7283 63.1383 40.782 64.02 40.8893 64.756C41.012 65.492 41.2113 66.1053 41.4873 66.596C41.7633 67.0713 42.1313 67.424 42.5913 67.654C43.0513 67.884 43.6187 67.999 44.2933 67.999C44.968 67.999 45.5353 67.884 45.9953 67.654C46.4553 67.424 46.8233 67.0713 47.0993 66.596C47.3753 66.1053 47.567 65.492 47.6743 64.756C47.797 64.02 47.8583 63.1383 47.8583 62.111V61.352C47.8583 60.3247 47.797 59.443 47.6743 58.707C47.567 57.971 47.3753 57.3653 47.0993 56.89C46.8233 56.3993 46.4553 56.039 45.9953 55.809C45.5353 55.579 44.968 55.464 44.2933 55.464ZM57.9174 53.302C58.7914 53.302 59.5581 53.4093 60.2174 53.624C60.8767 53.8387 61.4211 54.1377 61.8504 54.521C62.2951 54.9043 62.6247 55.349 62.8394 55.855C63.0694 56.361 63.1844 56.8977 63.1844 57.465V57.58C63.1844 57.9787 63.1231 58.3697 63.0004 58.753C62.8931 59.1363 62.7244 59.5043 62.4944 59.857C62.2644 60.1943 61.9654 60.501 61.5974 60.777C61.2447 61.0377 60.8231 61.2447 60.3324 61.398C60.8231 61.4747 61.2831 61.6127 61.7124 61.812C62.1417 61.996 62.5097 62.2413 62.8164 62.548C63.1384 62.8547 63.3914 63.2303 63.5754 63.675C63.7594 64.1043 63.8514 64.595 63.8514 65.147V65.377C63.8514 66.0057 63.7287 66.6113 63.4834 67.194C63.2534 67.7767 62.8931 68.2903 62.4024 68.735C61.9271 69.1643 61.3214 69.5093 60.5854 69.77C59.8647 70.0307 59.0214 70.161 58.0554 70.161C56.2154 70.161 54.6437 69.7163 53.3404 68.827C53.0491 68.643 52.8804 68.413 52.8344 68.137C52.7884 67.8457 52.8497 67.5697 53.0184 67.309C53.1871 67.033 53.3941 66.8643 53.6394 66.803C53.9001 66.7417 54.1684 66.7953 54.4444 66.964C55.0117 67.3473 55.5714 67.631 56.1234 67.815C56.6754 67.999 57.2811 68.091 57.9404 68.091C58.5844 68.091 59.1364 68.0143 59.5964 67.861C60.0564 67.7077 60.4244 67.5083 60.7004 67.263C60.9917 67.0023 61.1987 66.7033 61.3214 66.366C61.4594 66.0287 61.5284 65.676 61.5284 65.308V65.124C61.5284 64.618 61.4364 64.1963 61.2524 63.859C61.0684 63.5217 60.8154 63.2533 60.4934 63.054C60.1714 62.8393 59.7881 62.686 59.3434 62.594C58.8987 62.502 58.4157 62.456 57.8944 62.456H56.5834C56.2921 62.456 56.0774 62.3563 55.9394 62.157C55.8167 61.9577 55.7554 61.72 55.7554 61.444C55.7554 61.168 55.8167 60.938 55.9394 60.754C56.0774 60.5547 56.2921 60.455 56.5834 60.455H57.7104C58.6457 60.455 59.4124 60.2403 60.0104 59.811C60.6237 59.3817 60.9304 58.6917 60.9304 57.741V57.672C60.9304 56.9667 60.6774 56.3993 60.1714 55.97C59.6807 55.5407 58.9294 55.326 57.9174 55.326C57.2734 55.326 56.7137 55.441 56.2384 55.671C55.7784 55.901 55.3491 56.2383 54.9504 56.683C54.7357 56.8977 54.4904 56.9973 54.2144 56.982C53.9537 56.9513 53.7314 56.8287 53.5474 56.614C53.3481 56.3993 53.2561 56.1693 53.2714 55.924C53.2867 55.6633 53.3787 55.4257 53.5474 55.211C53.9921 54.659 54.5824 54.2067 55.3184 53.854C56.0697 53.486 56.9361 53.302 57.9174 53.302ZM68.2065 67.723C68.6512 67.723 69.0192 67.8687 69.3105 68.16C69.6172 68.4513 69.7705 68.8193 69.7705 69.264C69.7705 69.7087 69.6172 70.0767 69.3105 70.368C69.0192 70.6747 68.6512 70.828 68.2065 70.828C67.7618 70.828 67.3938 70.6747 67.1025 70.368C66.8112 70.0767 66.6655 69.7087 66.6655 69.264C66.6655 68.8193 66.8112 68.4513 67.1025 68.16C67.3938 67.8687 67.7618 67.723 68.2065 67.723ZM88.217 53.44C88.5084 53.44 88.7844 53.5243 89.045 53.693C89.3057 53.8617 89.4974 54.1453 89.62 54.544L93.001 66.596L96.313 54.245C96.3897 53.9077 96.5507 53.6777 96.796 53.555C97.0414 53.4323 97.3174 53.4093 97.624 53.486C97.946 53.5473 98.176 53.693 98.314 53.923C98.452 54.153 98.475 54.429 98.383 54.751L94.404 68.919C94.2814 69.3177 94.0897 69.6013 93.829 69.77C93.5684 69.9387 93.2847 70.023 92.978 70.023C92.6867 70.023 92.4107 69.9387 92.15 69.77C91.8894 69.586 91.6977 69.2947 91.575 68.896L88.194 56.522L84.721 68.919C84.5984 69.3177 84.399 69.6013 84.123 69.77C83.8624 69.9387 83.5864 70.023 83.295 70.023C82.9884 70.023 82.7047 69.9387 82.444 69.77C82.1834 69.586 81.9917 69.2947 81.869 68.896L77.936 54.866C77.844 54.498 77.8747 54.199 78.028 53.969C78.1814 53.7237 78.419 53.5627 78.741 53.486C79.0477 53.4093 79.3314 53.417 79.592 53.509C79.868 53.601 80.052 53.8387 80.144 54.222L83.41 66.619L86.791 54.544C86.8984 54.1453 87.0824 53.8617 87.343 53.693C87.619 53.5243 87.9104 53.44 88.217 53.44ZM105.492 57.557C106.29 57.557 107.01 57.6797 107.654 57.925C108.314 58.1703 108.873 58.5307 109.333 59.006C109.809 59.466 110.169 60.0333 110.414 60.708C110.675 61.3827 110.805 62.1493 110.805 63.008V63.054C110.805 63.6367 110.683 64.0507 110.437 64.296C110.192 64.526 109.77 64.641 109.172 64.641H102.226V64.733C102.226 65.837 102.518 66.688 103.1 67.286C103.683 67.884 104.526 68.183 105.63 68.183C106.32 68.183 106.918 68.1217 107.424 67.999C107.946 67.8763 108.452 67.6847 108.942 67.424C109.203 67.3013 109.441 67.2783 109.655 67.355C109.885 67.4163 110.062 67.5773 110.184 67.838C110.307 68.0987 110.338 68.3517 110.276 68.597C110.215 68.827 110.069 69.0033 109.839 69.126C109.287 69.4327 108.659 69.6703 107.953 69.839C107.263 70.0077 106.458 70.092 105.538 70.092C103.806 70.092 102.449 69.609 101.467 68.643C100.486 67.6617 99.9954 66.1897 99.9954 64.227V63.445C99.9954 61.4977 100.486 60.0333 101.467 59.052C102.464 58.0553 103.806 57.557 105.492 57.557ZM105.446 59.466C104.404 59.466 103.606 59.765 103.054 60.363C102.502 60.9457 102.226 61.7507 102.226 62.778V62.916H108.62V62.709C108.62 61.7123 108.36 60.9227 107.838 60.34C107.317 59.7573 106.52 59.466 105.446 59.466ZM114.973 52.865C115.28 52.865 115.548 52.9417 115.778 53.095C116.008 53.2483 116.123 53.4937 116.123 53.831V69.057C116.123 69.3943 116.008 69.6397 115.778 69.793C115.548 69.9463 115.28 70.023 114.973 70.023C114.682 70.023 114.421 69.9463 114.191 69.793C113.961 69.6397 113.846 69.3943 113.846 69.057V53.831C113.846 53.4937 113.961 53.2483 114.191 53.095C114.421 52.9417 114.682 52.865 114.973 52.865ZM124.673 57.557C125.547 57.557 126.291 57.6567 126.904 57.856C127.533 58.04 128.07 58.2777 128.514 58.569C128.76 58.7377 128.898 58.9523 128.928 59.213C128.974 59.4737 128.913 59.7267 128.744 59.972C128.591 60.1867 128.399 60.3323 128.169 60.409C127.955 60.4703 127.725 60.4243 127.479 60.271C127.081 60.041 126.651 59.8647 126.191 59.742C125.731 59.6193 125.225 59.558 124.673 59.558C123.661 59.558 122.872 59.8723 122.304 60.501C121.752 61.1297 121.476 62.1263 121.476 63.491V64.181C121.476 65.4997 121.76 66.481 122.327 67.125C122.91 67.769 123.707 68.091 124.719 68.091C125.9 68.091 126.904 67.8303 127.732 67.309C127.993 67.1557 128.246 67.1097 128.491 67.171C128.737 67.2323 128.921 67.3857 129.043 67.631C129.197 67.8763 129.258 68.1293 129.227 68.39C129.197 68.6507 129.051 68.8653 128.79 69.034C128.315 69.3407 127.732 69.5937 127.042 69.793C126.352 69.9923 125.57 70.092 124.696 70.092C122.979 70.092 121.63 69.609 120.648 68.643C119.682 67.6617 119.199 66.182 119.199 64.204V63.445C119.199 61.467 119.682 59.995 120.648 59.029C121.614 58.0477 122.956 57.557 124.673 57.557ZM136.874 57.557C138.637 57.557 140.017 58.0553 141.014 59.052C142.026 60.0333 142.532 61.4977 142.532 63.445V64.204C142.532 66.1513 142.026 67.6233 141.014 68.62C140.017 69.6013 138.637 70.092 136.874 70.092C135.111 70.092 133.723 69.6013 132.711 68.62C131.714 67.6233 131.216 66.1513 131.216 64.204V63.445C131.216 61.4977 131.714 60.0333 132.711 59.052C133.723 58.0553 135.111 57.557 136.874 57.557ZM136.874 59.558C135.77 59.558 134.927 59.8723 134.344 60.501C133.777 61.1297 133.493 62.134 133.493 63.514V64.135C133.493 65.5303 133.777 66.5423 134.344 67.171C134.927 67.7843 135.77 68.091 136.874 68.091C137.993 68.091 138.837 67.7843 139.404 67.171C139.971 66.5423 140.255 65.5303 140.255 64.135V63.514C140.255 62.134 139.971 61.1297 139.404 60.501C138.837 59.8723 137.993 59.558 136.874 59.558ZM151.333 57.557C152.222 57.557 152.966 57.7563 153.564 58.155C154.177 58.5383 154.591 59.0367 154.806 59.65C155.205 59.006 155.718 58.5 156.347 58.132C156.976 57.7487 157.781 57.557 158.762 57.557C160.065 57.557 161.093 57.9633 161.844 58.776C162.611 59.5887 162.994 60.7003 162.994 62.111V69.08C162.994 69.402 162.879 69.6397 162.649 69.793C162.419 69.9463 162.158 70.023 161.867 70.023C161.576 70.023 161.315 69.9463 161.085 69.793C160.855 69.6397 160.74 69.402 160.74 69.08V62.594C160.74 61.49 160.51 60.7157 160.05 60.271C159.605 59.811 158.977 59.581 158.164 59.581C157.367 59.581 156.707 59.8417 156.186 60.363C155.68 60.869 155.427 61.5743 155.427 62.479V69.08C155.427 69.402 155.312 69.6397 155.082 69.793C154.867 69.9463 154.607 70.023 154.3 70.023C154.009 70.023 153.748 69.9463 153.518 69.793C153.288 69.6397 153.173 69.402 153.173 69.08V62.571C153.173 61.513 152.951 60.754 152.506 60.294C152.061 59.8187 151.425 59.581 150.597 59.581C150.152 59.581 149.761 59.6577 149.424 59.811C149.087 59.9643 148.803 60.1713 148.573 60.432C148.343 60.6773 148.167 60.9763 148.044 61.329C147.937 61.6663 147.883 62.0267 147.883 62.41V69.08C147.883 69.402 147.768 69.6397 147.538 69.793C147.308 69.9463 147.04 70.023 146.733 70.023C146.442 70.023 146.181 69.9463 145.951 69.793C145.721 69.6397 145.606 69.402 145.606 69.08V58.638C145.606 58.316 145.713 58.086 145.928 57.948C146.158 57.7947 146.411 57.718 146.687 57.718C146.963 57.718 147.208 57.7947 147.423 57.948C147.653 58.086 147.768 58.316 147.768 58.638V59.581C148.075 58.9983 148.519 58.5153 149.102 58.132C149.7 57.7487 150.444 57.557 151.333 57.557ZM171.46 57.557C172.257 57.557 172.978 57.6797 173.622 57.925C174.281 58.1703 174.841 58.5307 175.301 59.006C175.776 59.466 176.137 60.0333 176.382 60.708C176.643 61.3827 176.773 62.1493 176.773 63.008V63.054C176.773 63.6367 176.65 64.0507 176.405 64.296C176.16 64.526 175.738 64.641 175.14 64.641H168.194V64.733C168.194 65.837 168.485 66.688 169.068 67.286C169.651 67.884 170.494 68.183 171.598 68.183C172.288 68.183 172.886 68.1217 173.392 67.999C173.913 67.8763 174.419 67.6847 174.91 67.424C175.171 67.3013 175.408 67.2783 175.623 67.355C175.853 67.4163 176.029 67.5773 176.152 67.838C176.275 68.0987 176.305 68.3517 176.244 68.597C176.183 68.827 176.037 69.0033 175.807 69.126C175.255 69.4327 174.626 69.6703 173.921 69.839C173.231 70.0077 172.426 70.092 171.506 70.092C169.773 70.092 168.416 69.609 167.435 68.643C166.454 67.6617 165.963 66.1897 165.963 64.227V63.445C165.963 61.4977 166.454 60.0333 167.435 59.052C168.432 58.0553 169.773 57.557 171.46 57.557ZM171.414 59.466C170.371 59.466 169.574 59.765 169.022 60.363C168.47 60.9457 168.194 61.7507 168.194 62.778V62.916H174.588V62.709C174.588 61.7123 174.327 60.9227 173.806 60.34C173.285 59.7573 172.487 59.466 171.414 59.466ZM191.452 53.44C191.759 53.44 192.027 53.5167 192.257 53.67C192.503 53.808 192.702 54.0763 192.855 54.475L198.306 68.528C198.429 68.8653 198.421 69.1643 198.283 69.425C198.161 69.6703 197.954 69.839 197.662 69.931C197.356 70.023 197.057 70.0383 196.765 69.977C196.474 69.9003 196.259 69.6703 196.121 69.287L194.603 65.17H188.232L186.668 69.356C186.546 69.7087 186.346 69.9233 186.07 70C185.81 70.0613 185.526 70.0383 185.219 69.931C184.928 69.8237 184.721 69.6627 184.598 69.448C184.476 69.218 184.476 68.9343 184.598 68.597L190.072 54.475C190.226 54.0763 190.417 53.808 190.647 53.67C190.877 53.5167 191.146 53.44 191.452 53.44ZM191.429 56.269C191.276 56.775 191.123 57.258 190.969 57.718C190.816 58.1627 190.632 58.6763 190.417 59.259L188.922 63.238H193.913L192.441 59.259C192.227 58.6763 192.035 58.1473 191.866 57.672C191.713 57.1967 191.567 56.729 191.429 56.269ZM202.212 52.865C202.518 52.865 202.787 52.9417 203.017 53.095C203.247 53.2483 203.362 53.4937 203.362 53.831V69.057C203.362 69.3943 203.247 69.6397 203.017 69.793C202.787 69.9463 202.518 70.023 202.212 70.023C201.92 70.023 201.66 69.9463 201.43 69.793C201.2 69.6397 201.085 69.3943 201.085 69.057V53.831C201.085 53.4937 201.2 53.2483 201.43 53.095C201.66 52.9417 201.92 52.865 202.212 52.865ZM208.278 53.164C208.707 53.164 209.067 53.3097 209.359 53.601C209.65 53.877 209.796 54.2143 209.796 54.613C209.796 55.027 209.65 55.3797 209.359 55.671C209.067 55.947 208.707 56.085 208.278 56.085C207.848 56.085 207.488 55.947 207.197 55.671C206.905 55.3797 206.76 55.027 206.76 54.613C206.76 54.2143 206.905 53.877 207.197 53.601C207.488 53.3097 207.848 53.164 208.278 53.164ZM208.278 57.718C208.584 57.718 208.845 57.7947 209.06 57.948C209.29 58.1013 209.405 58.339 209.405 58.661V69.08C209.405 69.402 209.29 69.6397 209.06 69.793C208.845 69.9463 208.584 70.023 208.278 70.023C207.986 70.023 207.726 69.9463 207.496 69.793C207.266 69.6397 207.151 69.402 207.151 69.08V58.661C207.151 58.339 207.266 58.1013 207.496 57.948C207.726 57.7947 207.986 57.718 208.278 57.718ZM218.044 57.557C218.841 57.557 219.562 57.6797 220.206 57.925C220.865 58.1703 221.425 58.5307 221.885 59.006C222.36 59.466 222.721 60.0333 222.966 60.708C223.227 61.3827 223.357 62.1493 223.357 63.008V63.054C223.357 63.6367 223.234 64.0507 222.989 64.296C222.744 64.526 222.322 64.641 221.724 64.641H214.778V64.733C214.778 65.837 215.069 66.688 215.652 67.286C216.235 67.884 217.078 68.183 218.182 68.183C218.872 68.183 219.47 68.1217 219.976 67.999C220.497 67.8763 221.003 67.6847 221.494 67.424C221.755 67.3013 221.992 67.2783 222.207 67.355C222.437 67.4163 222.613 67.5773 222.736 67.838C222.859 68.0987 222.889 68.3517 222.828 68.597C222.767 68.827 222.621 69.0033 222.391 69.126C221.839 69.4327 221.21 69.6703 220.505 69.839C219.815 70.0077 219.01 70.092 218.09 70.092C216.357 70.092 215 69.609 214.019 68.643C213.038 67.6617 212.547 66.1897 212.547 64.227V63.445C212.547 61.4977 213.038 60.0333 214.019 59.052C215.016 58.0553 216.357 57.557 218.044 57.557ZM217.998 59.466C216.955 59.466 216.158 59.765 215.606 60.363C215.054 60.9457 214.778 61.7507 214.778 62.778V62.916H221.172V62.709C221.172 61.7123 220.911 60.9227 220.39 60.34C219.869 59.7573 219.071 59.466 217.998 59.466ZM232.424 57.557C233.804 57.557 234.877 57.948 235.644 58.73C236.411 59.4967 236.794 60.6007 236.794 62.042V69.08C236.794 69.402 236.679 69.6397 236.449 69.793C236.219 69.9463 235.958 70.023 235.667 70.023C235.376 70.023 235.115 69.9463 234.885 69.793C234.655 69.6397 234.54 69.402 234.54 69.08V62.571C234.54 61.467 234.295 60.6927 233.804 60.248C233.329 59.788 232.654 59.558 231.78 59.558C231.366 59.558 230.967 59.6347 230.584 59.788C230.216 59.926 229.886 60.1253 229.595 60.386C229.319 60.6467 229.097 60.9687 228.928 61.352C228.759 61.72 228.675 62.1417 228.675 62.617V69.08C228.675 69.402 228.56 69.6397 228.33 69.793C228.1 69.9463 227.832 70.023 227.525 70.023C227.234 70.023 226.973 69.9463 226.743 69.793C226.513 69.6397 226.398 69.402 226.398 69.08V58.638C226.398 58.316 226.505 58.086 226.72 57.948C226.95 57.7947 227.203 57.718 227.479 57.718C227.755 57.718 228 57.7947 228.215 57.948C228.445 58.086 228.56 58.316 228.56 58.638V59.443H228.606C228.897 58.9063 229.388 58.4617 230.078 58.109C230.768 57.741 231.55 57.557 232.424 57.557Z" fill="black"/>
</svg>
